<svg xmlns="http://www.w3.org/2000/svg" viewBox="0 0 372.26 369.19"><defs><style>.cls-1{fill:#fff;}</style></defs><g id="Layer_2" data-name="Layer 2"><g id="Layer_2-2" data-name="Layer 2"><rect class="cls-1" y="257.36" width="111.83" height="111.83" rx="32.17"/><rect class="cls-1" y="128.68" width="111.83" height="111.83" rx="32.17"/><rect class="cls-1" width="111.83" height="111.83" rx="32.17"/><rect class="cls-1" x="130.21" y="257.36" width="111.83" height="111.83" rx="32.17"/><path class="cls-1" d="M209.87,145.68A15.19,15.19,0,0,1,225,160.85v47.49a15.18,15.18,0,0,1-15.17,15.17H162.38a15.19,15.19,0,0,1-15.17-15.17V160.85a15.19,15.19,0,0,1,15.17-15.17h47.49m0-17H162.38a32.17,32.17,0,0,0-32.17,32.17v47.49a32.17,32.17,0,0,0,32.17,32.17h47.49A32.17,32.17,0,0,0,242,208.34V160.85a32.17,32.17,0,0,0-32.17-32.17Z"/><rect class="cls-1" x="130.21" width="111.83" height="111.83" rx="32.17"/><path class="cls-1" d="M340.09,274.36a15.19,15.19,0,0,1,15.17,15.17V337a15.19,15.19,0,0,1-15.17,15.17H292.6A15.18,15.18,0,0,1,277.43,337V289.53a15.19,15.19,0,0,1,15.17-15.17h47.49m0-17H292.6a32.17,32.17,0,0,0-32.17,32.17V337a32.17,32.17,0,0,0,32.17,32.17h47.49A32.17,32.17,0,0,0,372.26,337V289.53a32.17,32.17,0,0,0-32.17-32.17Z"/><rect class="cls-1" x="260.43" y="128.68" width="111.83" height="111.83" rx="32.17"/><rect class="cls-1" x="260.43" width="111.83" height="111.83" rx="32.17"/></g></g></svg>