<svg xmlns="http://www.w3.org/2000/svg" viewBox="0 0 90.13 89.79"><defs><style>.cls-1{fill:#fff;}</style></defs><g id="Layer_2" data-name="Layer 2"><g id="Layer_3" data-name="Layer 3"><path class="cls-1" d="M69,44.9q8.3-8.73,16.54-17.51a16.3,16.3,0,0,0,0-22.77c-6-6.18-15.11-6.19-21.29.15-5.66,5.8-11.32,11.62-16.71,17.7a5.43,5.43,0,0,1-2.42,1.82,5.46,5.46,0,0,1-2.41-1.82c-5.4-6.08-11-11.9-16.71-17.7-6.19-6.34-15.3-6.33-21.29-.15a16.3,16.3,0,0,0,0,22.77q8.22,8.8,16.54,17.51Q12.87,53.62,4.62,62.4a16.3,16.3,0,0,0,0,22.77c6,6.18,15.1,6.19,21.29-.15,5.66-5.8,11.31-11.62,16.71-17.7a5.46,5.46,0,0,1,2.41-1.82,5.43,5.43,0,0,1,2.42,1.82C52.87,73.4,58.53,79.22,64.19,85c6.18,6.34,15.3,6.33,21.29.15a16.3,16.3,0,0,0,0-22.77Q77.29,53.6,69,44.9Z"/></g></g></svg>