<svg xmlns="http://www.w3.org/2000/svg" viewBox="0 0 124.85 114.69"><g id="Layer_2" data-name="Layer 2"><g id="Layer_3" data-name="Layer 3"><rect y="73.41" width="124.85" height="9.53" rx="1.87"/><path d="M117.7,50.77H7.91a4,4,0,0,0-4,4V74.18a4,4,0,0,0,4,4H117.7a4,4,0,0,0,4-4V54.77A4,4,0,0,0,117.7,50.77Zm-1.15,22.64H9.83V68.6a2,2,0,0,1,2-2H114.55a2,2,0,0,1,2,2Z"/><path d="M9.47,114.69H7.89C6.28,114.69,5,81.43,5,81.43a2.91,2.91,0,0,1,2.91-2.91H9.47a2.91,2.91,0,0,1,2.91,2.91S11.08,114.69,9.47,114.69Z"/><path d="M116.62,114.69H115c-1.61,0-2.91-33.26-2.91-33.26A2.91,2.91,0,0,1,115,78.52h1.58a2.91,2.91,0,0,1,2.91,2.91S118.23,114.69,116.62,114.69Z"/><rect x="25.46" y="24.56" width="102.83" height="4.6" rx="2.3" transform="translate(23.73 -34.84) rotate(30)"/><rect x="23.49" y="1.2" width="1.87" height="58.38" transform="translate(22.41 -8.55) rotate(35.82)"/><rect x="12.62" y="71.06" width="3.38" height="3.38" rx="0.93"/><rect x="17.53" y="71.06" width="3.38" height="3.38" rx="0.93"/><rect x="25.89" y="71.06" width="3.38" height="3.38" rx="0.93"/><rect x="30.78" y="71.06" width="3.38" height="3.38" rx="0.93"/><rect x="35.66" y="71.06" width="3.38" height="3.38" rx="0.93"/><rect x="43.77" y="71.06" width="3.38" height="3.38" rx="0.93"/><rect x="48.68" y="71.06" width="3.38" height="3.38" rx="0.93"/><rect x="57.04" y="71.06" width="3.38" height="3.38" rx="0.93"/><rect x="61.93" y="71.06" width="3.38" height="3.38" rx="0.93"/><rect x="66.81" y="71.06" width="3.38" height="3.38" rx="0.93"/><rect x="74.74" y="71.06" width="3.38" height="3.38" rx="0.93"/><rect x="79.66" y="71.06" width="3.38" height="3.38" rx="0.93"/><rect x="88.02" y="71.06" width="3.38" height="3.38" rx="0.93"/><rect x="92.9" y="71.06" width="3.38" height="3.38" rx="0.93"/><rect x="97.79" y="71.06" width="3.38" height="3.38" rx="0.93"/><rect x="105.47" y="71.06" width="3.38" height="3.38" rx="0.93"/><rect x="110.38" y="71.06" width="3.38" height="3.38" rx="0.93"/></g></g></svg>