<svg xmlns="http://www.w3.org/2000/svg" viewBox="0 0 515.97 477.18"><defs><style>.cls-1{fill:#fff;}</style></defs><g id="Layer_2" data-name="Layer 2"><g id="Layer_2-2" data-name="Layer 2"><path class="cls-1" d="M44.26,411.18H467.31c12.65.29,8.5-18.25,9.13-25.87a9.13,9.13,0,0,0-9.13-9.13H428.87v-206h-68v206h-68v-206h-68v206h-70v-206h-68v206H44.26c-12.65-.29-8.5,18.25-9.13,25.87A9.13,9.13,0,0,0,44.26,411.18Z"/><path class="cls-1" d="M500,425.6H17.44c-19.21-.35-14.8,24-15.32,36.25a15.31,15.31,0,0,0,15.31,15.32H500a15.32,15.32,0,0,0,15.32-15.32C515.25,449.59,518.81,425.26,500,425.6Z"/><path class="cls-1" d="M12.84,129.18H35.35c.68,10.34-3.25,23.93,9.59,25H474c11.93.3,9.5-15.74,9.34-25h19.69c14.52.56,16.88-25.5,6.65-33h0c-5.34-2.09-245.42-94-251-96.18L5.24,96.18h.93C-3.65,102.64-2,130,12.84,129.18Z"/></g></g></svg>