<svg xmlns="http://www.w3.org/2000/svg" viewBox="0 0 283.04 193.58"><defs><style>.cls-1{fill:#fff;}</style></defs><g id="Layer_2" data-name="Layer 2"><g id="Layer_2-2" data-name="Layer 2"><path class="cls-1" d="M273.3,157.79H9.74c-5.38,0-9.74,6.56-9.74,14.65v6.49c0,8.09,4.36,14.65,9.74,14.65H273.3c5.38,0,9.74-6.56,9.74-14.65v-6.49C283,164.35,278.68,157.79,273.3,157.79Z"/><path class="cls-1" d="M273.3,78.89H9.74C4.36,78.89,0,85.45,0,93.54V100c0,8.1,4.36,14.65,9.74,14.65H273.3c5.38,0,9.74-6.55,9.74-14.65V93.54C283,85.45,278.68,78.89,273.3,78.89Z"/><path class="cls-1" d="M273.3,0H9.74C4.36,0,0,6.56,0,14.65v6.49c0,8.09,4.36,14.65,9.74,14.65H273.3c5.38,0,9.74-6.56,9.74-14.65V14.65C283,6.56,278.68,0,273.3,0Z"/></g></g></svg>