<svg xmlns="http://www.w3.org/2000/svg" viewBox="0 0 412.08 311.13"><defs><style>.cls-1{fill:#fff;}</style></defs><g id="Layer_2" data-name="Layer 2"><g id="Layer_3" data-name="Layer 3"><path class="cls-1" d="M198.65,43.25c0-7.74-1.54-8.34-7.22-11.62-18.94-11-48.2-23-85.22-28.64A262.68,262.68,0,0,0,3.15,7.81a3.59,3.59,0,0,0-3.15,4v264.8c0,3.67,2.63,3.82,4,3.62A335,335,0,0,1,198.36,311c.27.13.79.28.79-.54C199.15,221.41,198.65,132.33,198.65,43.25ZM186.26,232.54l-.71,4.68a6.51,6.51,0,0,1-2.58,4.27,6.63,6.63,0,0,1-4.84,1.19A232.76,232.76,0,0,0,18.35,218.42,6.51,6.51,0,0,1,12.89,211l.71-4.68a6.51,6.51,0,0,1,2.58-4.27A6.61,6.61,0,0,1,21,200.86,221.48,221.48,0,0,1,180.8,225.12,6.52,6.52,0,0,1,186.26,232.54Zm0-58.73-.71,4.69a6.51,6.51,0,0,1-2.58,4.27,6.63,6.63,0,0,1-4.84,1.19A232.76,232.76,0,0,0,18.35,159.7a6.51,6.51,0,0,1-5.46-7.42l.71-4.69a6.47,6.47,0,0,1,2.58-4.26,6.64,6.64,0,0,1,4.83-1.2A221.55,221.55,0,0,1,180.8,166.4,6.51,6.51,0,0,1,186.26,173.81Zm0-56.42-.71,4.68a6.51,6.51,0,0,1-2.58,4.27,6.63,6.63,0,0,1-4.84,1.19A232.76,232.76,0,0,0,18.35,103.27a6.51,6.51,0,0,1-5.46-7.42l.71-4.68a6.51,6.51,0,0,1,2.58-4.27A6.61,6.61,0,0,1,21,85.71,221.48,221.48,0,0,1,180.8,110,6.52,6.52,0,0,1,186.26,117.39Zm0-50L185.55,72A6.51,6.51,0,0,1,183,76.3a6.63,6.63,0,0,1-4.84,1.19A232.76,232.76,0,0,0,18.35,53.23a6.51,6.51,0,0,1-5.46-7.42l.71-4.69a6.51,6.51,0,0,1,2.58-4.26A6.64,6.64,0,0,1,21,35.66,221.55,221.55,0,0,1,180.8,59.93,6.51,6.51,0,0,1,186.26,67.34Z"/><path class="cls-1" d="M408.93,7.81A262.68,262.68,0,0,0,305.87,3c-37,5.66-66.28,17.68-85.22,28.64-5.67,3.28-7.22,3.88-7.22,11.62,0,89.08-.49,178.16-.49,267.24,0,.82.52.67.78.54a335,335,0,0,1,194.37-30.84c1.36.2,4,.05,4-3.62V11.77A3.59,3.59,0,0,0,408.93,7.81Zm-15.19,95.46A232.78,232.78,0,0,0,234,127.53a6.64,6.64,0,0,1-4.84-1.19,6.5,6.5,0,0,1-2.57-4.27l-.72-4.68a6.52,6.52,0,0,1,5.46-7.42A221.48,221.48,0,0,1,391.07,85.71a6.64,6.64,0,0,1,4.84,1.19,6.5,6.5,0,0,1,2.57,4.27l.72,4.68A6.52,6.52,0,0,1,393.74,103.27Zm0-50A232.78,232.78,0,0,0,234,77.49a6.64,6.64,0,0,1-4.84-1.19A6.5,6.5,0,0,1,226.54,72l-.72-4.69a6.51,6.51,0,0,1,5.46-7.41A221.55,221.55,0,0,1,391.07,35.66a6.66,6.66,0,0,1,4.84,1.2,6.5,6.5,0,0,1,2.57,4.26l.72,4.69A6.52,6.52,0,0,1,393.74,53.23Z"/></g></g></svg>