<svg xmlns="http://www.w3.org/2000/svg" viewBox="0 0 212.13 176.66"><defs><style>.cls-1{fill:#fff;}</style></defs><g id="Layer_2" data-name="Layer 2"><g id="Layer_3" data-name="Layer 3"><rect class="cls-1" x="48.04" width="23.66" height="34.77" rx="7.17"/><rect class="cls-1" x="143.7" width="23.66" height="34.77" rx="7.17"/><path class="cls-1" d="M181.89,15.3H172.5V30a9.42,9.42,0,0,1-9.42,9.42H147.33A9.41,9.41,0,0,1,137.92,30V15.3H76.75V30a9.42,9.42,0,0,1-9.42,9.42H51.59A9.42,9.42,0,0,1,42.17,30V15.3H30.23A30.23,30.23,0,0,0,0,45.53v100.9a30.24,30.24,0,0,0,30.23,30.23H181.89a30.24,30.24,0,0,0,30.24-30.23V45.53A30.23,30.23,0,0,0,181.89,15.3ZM55.59,144.86a10,10,0,0,1-10,10H40.51a10,10,0,0,1-10-10v-5.08a10,10,0,0,1,10-10h5.08a10,10,0,0,1,10,10Zm0-36.27a10,10,0,0,1-10,10H40.51a10,10,0,0,1-10-10v-5.08a10,10,0,0,1,10-10h5.08a10,10,0,0,1,10,10Zm0-37.5a10,10,0,0,1-10,10H40.51a10,10,0,0,1-10-10V66a10,10,0,0,1,10-10h5.08a10,10,0,0,1,10,10Zm69.46,73.77a10,10,0,0,1-10,10H76.17a10,10,0,0,1-10-10v-5.08a10,10,0,0,1,10-10h38.88a10,10,0,0,1,10,10Zm56.57,0a10,10,0,0,1-10,10H147.46a10,10,0,0,1-10-10v-5.08a10,10,0,0,1,10-10h24.16a10,10,0,0,1,10,10Zm0-36.27a10,10,0,0,1-10,10H82.16a10,10,0,0,1-10-10v-5.08a10,10,0,0,1,10-10h89.46a10,10,0,0,1,10,10Zm0-37.5a10,10,0,0,1-10,10H129a10,10,0,0,1-10-10V66a10,10,0,0,1,10-10h42.64a10,10,0,0,1,10,10Z"/></g></g></svg>