<svg xmlns="http://www.w3.org/2000/svg" viewBox="0 0 74 74"><defs><style>.cls-1{fill:#fff;stroke:#000;stroke-width:2px;}</style></defs><g id="Layer_2" data-name="Layer 2"><g id="Layer_3" data-name="Layer 3"><rect class="cls-1" x="1" y="1" width="72" height="72" rx="12.64"/><path d="M13.47.4H24.28a0,0,0,0,1,0,0v37.7a3.74,3.74,0,0,1-3.74,3.74H17.21a3.74,3.74,0,0,1-3.74-3.74V.4A0,0,0,0,1,13.47.4Z"/><path d="M31.6.4H42.4a0,0,0,0,1,0,0v37.7a3.74,3.74,0,0,1-3.74,3.74H35.34a3.74,3.74,0,0,1-3.74-3.74V.4A0,0,0,0,1,31.6.4Z"/><path d="M49.72.4H60.53a0,0,0,0,1,0,0v37.7a3.74,3.74,0,0,1-3.74,3.74H53.47a3.74,3.74,0,0,1-3.74-3.74V.4A0,0,0,0,1,49.72.4Z"/><rect x="17.4" y="41.85" width="2.94" height="30.13"/><rect x="35.53" y="41.85" width="2.94" height="30.13"/><rect x="53.66" y="41.85" width="2.94" height="30.13"/></g></g></svg>