<svg xmlns="http://www.w3.org/2000/svg" viewBox="0 0 128.01 96.03"><defs><style>.cls-1{fill:#fdfefd;}</style></defs><g id="Layer_2" data-name="Layer 2"><g id="Layer_3" data-name="Layer 3"><path class="cls-1" d="M48.38,96a16.19,16.19,0,0,1-11.75-4.84C26.05,80.58,15.39,70.05,4.86,59.38c-6.54-6.64-6.43-16.44,0-22.78,6.31-6.18,15.92-6.18,22.44.15,6,5.8,11.92,11.63,17.61,17.7,2.42,2.59,3.76,2.45,6.2,0Q75.71,29.55,100.56,5c5.21-5.19,12-6.31,18.36-3.32A15.89,15.89,0,0,1,128,17a15.48,15.48,0,0,1-4.59,10.24Q91.24,59.41,59.09,91.53A15.64,15.64,0,0,1,48.38,96Z"/></g></g></svg>