<svg xmlns="http://www.w3.org/2000/svg" viewBox="0 0 124.85 75.11"><defs><style>.cls-1{stroke:#000;stroke-width:3px;}</style></defs><g id="Layer_2" data-name="Layer 2"><g id="Layer_3" data-name="Layer 3"><path d="M117.7,11.19H7.91a4,4,0,0,0-4,4V34.6a4,4,0,0,0,4,4H117.7a4,4,0,0,0,4-4V15.19A4,4,0,0,0,117.7,11.19Zm-1.15,22.64H9.83V29a2,2,0,0,1,2-2H114.55a2,2,0,0,1,2,2Z"/><path d="M117.7,0H7.91a4,4,0,0,0-4,4V23.4a4,4,0,0,0,4,4H117.7a4,4,0,0,0,4-4V4A4,4,0,0,0,117.7,0Zm-1.15,22.64H9.83V17.83a2,2,0,0,1,2-2H114.55a2,2,0,0,1,2,2Z"/><rect y="33.83" width="124.85" height="9.53" rx="1.87"/><path d="M9.47,75.11H7.89C6.28,75.11,5,41.85,5,41.85a2.91,2.91,0,0,1,2.91-2.91H9.47a2.91,2.91,0,0,1,2.91,2.91S11.08,75.11,9.47,75.11Z"/><path d="M116.62,75.11H115c-1.61,0-2.91-33.26-2.91-33.26A2.91,2.91,0,0,1,115,38.94h1.58a2.91,2.91,0,0,1,2.91,2.91S118.23,75.11,116.62,75.11Z"/><rect x="12.62" y="31.48" width="3.38" height="3.38" rx="0.93"/><rect x="17.53" y="31.48" width="3.38" height="3.38" rx="0.93"/><rect x="25.89" y="31.48" width="3.38" height="3.38" rx="0.93"/><rect x="30.78" y="31.48" width="3.38" height="3.38" rx="0.93"/><rect x="35.66" y="31.48" width="3.38" height="3.38" rx="0.93"/><rect x="43.77" y="31.48" width="3.38" height="3.38" rx="0.93"/><rect x="48.68" y="31.48" width="3.38" height="3.38" rx="0.93"/><rect x="57.04" y="31.48" width="3.38" height="3.38" rx="0.93"/><rect x="61.93" y="31.48" width="3.38" height="3.38" rx="0.93"/><rect x="66.81" y="31.48" width="3.38" height="3.38" rx="0.93"/><rect x="74.74" y="31.48" width="3.38" height="3.38" rx="0.93"/><rect x="79.66" y="31.48" width="3.38" height="3.38" rx="0.93"/><rect x="88.02" y="31.48" width="3.38" height="3.38" rx="0.93"/><rect x="92.9" y="31.48" width="3.38" height="3.38" rx="0.93"/><rect x="97.79" y="31.48" width="3.38" height="3.38" rx="0.93"/><rect x="105.47" y="31.48" width="3.38" height="3.38" rx="0.93"/><rect x="110.38" y="31.48" width="3.38" height="3.38" rx="0.93"/><path class="cls-1" d="M107.53,47.28H16.33c-.2,4.49-.86,18.84-1.73,25.51h94.65C108.38,66.12,107.72,51.77,107.53,47.28Z"/></g></g></svg>