<svg xmlns="http://www.w3.org/2000/svg" viewBox="0 0 300.23 242.33"><defs><style>.cls-1{fill:#fff;}</style></defs><g id="Layer_2" data-name="Layer 2"><g id="Layer_3" data-name="Layer 3"><path class="cls-1" d="M300.23,200.12c-2.6,0-5.2,0-7.79,0H270.6c-.55,0-1,0-1.39-.6-13.08-20.84-31.13-36.07-53-46.95-8.5-4.22-16.74-7.28-29.14-10.73a43.86,43.86,0,0,1,6-2.09c23.51-6.74,46.37-5.19,68.31,5.84,14.3,7.19,25.5,17.73,32.72,32.19a58,58,0,0,1,6,21.42c0,.22,0,.49.21.64Z"/><path class="cls-1" d="M148.09,242.31H25.23c-1.51,0-1.5,0-1.25-1.54,3.31-20.46,12.71-37.82,27-52.61,17.15-17.73,38.1-28.81,61.87-34.8a140.17,140.17,0,0,1,30.44-4.16c29.09-.79,56.19,5.92,80.8,21.71,16.23,10.41,29.28,23.9,38.37,41a91.53,91.53,0,0,1,9.77,29.38c.15,1-.14,1-.93,1q-12.66,0-25.31,0Z"/><path class="cls-1" d="M148.06,0A55.27,55.27,0,1,1,92.79,54.89,55.34,55.34,0,0,1,148.06,0Z"/><path class="cls-1" d="M220,119.68c-9.72-.3-17.51-3.25-24.28-8.9a49.62,49.62,0,0,1-3.63-3.48c-.52-.53-.45-.8.09-1.27a65.58,65.58,0,0,0,13.32-15.76,66.45,66.45,0,0,0,9.77-36.47,59.09,59.09,0,0,0-.64-7.87c-.12-.79.13-1,.82-1,10.91-1.1,20.69,1.68,29,8.89,9,7.83,13.27,17.87,13,29.78-.38,17.26-13.74,32.61-30.73,35.48A47.61,47.61,0,0,1,220,119.68Z"/><path class="cls-1" d="M80.14,119.7a37.53,37.53,0,0,1-6.27-74.54,40.77,40.77,0,0,1,6.81-.51c.87,0,.89.24.8,1C78.87,66.31,84.29,84.54,98,100.24a60.92,60.92,0,0,0,8.1,7.63c.52.42.77.64.14,1.24A38,38,0,0,1,80.14,119.7Z"/><path class="cls-1" d="M111.52,141.25c-2.66.72-5.09,1.33-7.49,2-21.55,6.33-40.81,16.77-57.29,32.13a116.85,116.85,0,0,0-19.67,23.88,1.63,1.63,0,0,1-1.61.89c-8,0-15.91,0-23.87,0-1.68,0-1.69,0-1.52-1.65a60.26,60.26,0,0,1,9.41-26.84c8.88-13.79,21.33-23.24,36.41-29.34A90.72,90.72,0,0,1,85.51,136,93.18,93.18,0,0,1,111.52,141.25Z"/></g></g></svg>