<?xml version="1.0" encoding="utf-8"?><svg xml:space="preserve" viewBox="0 0 100 100" y="0" x="0" xmlns="http://www.w3.org/2000/svg" id="Layer_1" version="1.1" width="256px" height="256px" xmlns:xlink="http://www.w3.org/1999/xlink" style="width:100%;height:100%;background-size:initial;background-repeat-y:initial;background-repeat-x:initial;background-position-y:initial;background-position-x:initial;background-origin:initial;background-image:initial;background-color:rgba(255, 255, 255, 0);background-clip:initial;background-attachment:initial;animation-play-state:paused" ><g class="ldl-scale" style="transform-origin:50% 50%;transform:rotate(0deg) scale(0.8, 0.8);animation-play-state:paused" ><path fill="#323232" d="M91.772 63.44h.021V7.5h-6.3l-2.727.654-41.57 9.961-9.027 2.163v43.484c-3.811-1.303-8.343-1.262-12.706.438-8.761 3.412-13.514 12.211-10.616 19.653 2.899 7.441 12.351 10.707 21.113 7.294 7.932-3.09 12.557-10.592 11.215-17.507h.021V35.824l41.57-9.961v27.698c-3.811-1.303-8.343-1.262-12.706.438-8.762 3.413-13.515 12.212-10.616 19.653 2.899 7.441 12.351 10.707 21.113 7.294 7.933-3.089 12.558-10.591 11.215-17.506zm-9.006-42.202l-41.57 9.961v-4.186l41.57-9.961v4.186z" style="fill:rgb(30, 44, 79);animation-play-state:paused" ></path>
<metadata xmlns:d="https://loading.io/stock/" style="animation-play-state:paused" ><d:name style="animation-play-state:paused" >music note</d:name>
<d:tags style="animation-play-state:paused" >music note,sixteenth notes,score,midi,16th notes</d:tags>
<d:license style="animation-play-state:paused" >by</d:license>
<d:slug style="animation-play-state:paused" >ruxu09</d:slug></metadata></g><!-- generated by https://loading.io/ --></svg>